<?xml version="1.0" encoding="iso-8859-1"?>
<!-- Uploaded to: SVG Repo, www.svgrepo.com, Generator: SVG Repo Mixer Tools -->
<svg height="800px" width="800px" version="1.1" id="Layer_1" xmlns="http://www.w3.org/2000/svg" xmlns:xlink="http://www.w3.org/1999/xlink" 
	 viewBox="0 0 512 512" xml:space="preserve">
<path style="fill:#6A81B5;" d="M149.753,387.837c-7.464-1.994-15.356,0.637-20.287,5.556l-10.856-10.856
	c4.919-4.929,7.55-12.823,5.556-20.287c-2.978-11.146-14.358-17.84-25.509-14.856l-64.473,17.202
	c-7.852,2.098-13.758,8.543-15.166,16.547L0.316,487.492c-1.181,6.71,0.989,13.571,5.806,18.388
	c3.951,3.953,9.283,6.117,14.773,6.117c1.203,0,2.416-0.104,3.621-0.318l106.361-18.711c8.004-1.408,14.465-7.33,16.564-15.182
	l17.168-64.439C167.587,402.199,160.899,390.814,149.753,387.837z"/>
<path style="fill:#51D2E1;" d="M505.88,55.101L456.902,6.122c-7.795-7.795-20.302-8.192-28.576-0.908L256.004,156.912
	l-109.929,96.773c-1.464,1.288-2.74,2.776-3.791,4.418l-60.063,93.843l77.836,77.838l93.842-60.063
	c0.735-0.471,1.439-0.986,2.107-1.543c0.826-0.688,1.599-1.44,2.311-2.248L506.788,83.677
	C514.072,75.403,513.675,62.894,505.88,55.101z"/>
<path style="fill:#152F6A;" d="M147.441,477.784l17.168-64.439c2.978-11.147-3.71-22.532-14.856-25.509
	c-7.464-1.994-15.356,0.637-20.287,5.556l-5.826-5.826L5.749,505.458c0.13,0.136,0.24,0.288,0.373,0.422
	c3.951,3.953,9.283,6.117,14.773,6.117c1.203,0,2.416-0.104,3.621-0.318l106.361-18.711
	C138.883,491.56,145.344,485.636,147.441,477.784z"/>
<path style="fill:#0D9EC0;" d="M258.316,365.927l248.472-282.25c7.284-8.273,6.886-20.783-0.908-28.576l-24.887-24.887
	L120.741,390.466l39.316,39.316l93.842-60.063c0.735-0.471,1.439-0.986,2.107-1.543
	C256.831,367.489,257.604,366.737,258.316,365.927z"/>
<circle style="fill:#F7F2D3;" cx="84.386" cy="427.613" r="21.588"/>
</svg>